<svg width="61" height="60" viewBox="0 0 61 60" fill="none" xmlns="http://www.w3.org/2000/svg">
<path d="M60.4107 18.0041C60.2698 14.8625 59.7531 12.7027 59.0129 10.8312C58.2493 8.8447 57.0745 7.06616 55.5354 5.58766C54.0316 4.08614 52.2107 2.91939 50.2136 2.18036C48.2991 1.45261 46.1138 0.944588 42.9185 0.806076C39.6994 0.655834 38.6774 0.621094 30.5128 0.621094C22.3481 0.621094 21.3261 0.655834 18.1189 0.794346C14.9236 0.932857 12.7269 1.44133 10.8239 2.16863C8.80288 2.91939 6.99392 4.07441 5.49012 5.58766C3.96291 7.06616 2.77667 8.85644 2.02454 10.82C1.28434 12.7027 0.767626 14.8508 0.626746 17.9923C0.473934 21.1573 0.438599 22.1621 0.438599 30.1895C0.438599 38.2168 0.473934 39.2216 0.614814 42.3749C0.755695 45.5164 1.27287 47.6762 2.01307 49.5477C2.77667 51.5342 3.96291 53.3128 5.49012 54.7913C6.99392 56.2928 8.81481 57.4595 10.8119 58.1986C12.7269 58.9263 14.9117 59.4343 18.1074 59.5728C21.3142 59.7118 22.3366 59.7461 30.5013 59.7461C38.6659 59.7461 39.6879 59.7118 42.8951 59.5728C46.0904 59.4343 48.2871 58.9263 50.1902 58.1986C54.2317 56.6623 57.427 53.5207 58.9895 49.5477C59.7292 47.6649 60.2464 45.5164 60.3873 42.3749C60.5282 39.2216 60.5635 38.2168 60.5635 30.1895C60.5635 22.1621 60.5516 21.1573 60.4107 18.0041ZM54.9953 42.1439C54.8659 45.0314 54.3726 46.5907 53.9614 47.6302C52.9509 50.2059 50.8716 52.2502 48.2518 53.2437C47.1945 53.648 45.5971 54.133 42.6716 54.2598C39.4998 54.3987 38.5485 54.433 30.5247 54.433C22.5009 54.433 21.5377 54.3987 18.3773 54.2598C15.4403 54.133 13.8544 53.648 12.7971 53.2437C11.4934 52.77 10.3067 52.0192 9.34346 51.0375C8.3449 50.0787 7.5813 48.9237 7.09946 47.6419C6.68829 46.6024 6.19498 45.0314 6.06603 42.1556C5.92469 39.037 5.88981 38.1013 5.88981 30.2125C5.88981 22.3236 5.92469 21.3766 6.06603 18.2698C6.19498 15.3823 6.68829 13.823 7.09946 12.7835C7.5813 11.5012 8.3449 10.3349 9.35539 9.38747C10.3301 8.40571 11.5049 7.65495 12.809 7.18166C13.8663 6.77741 15.4642 6.29239 18.3892 6.16516C21.5611 6.02665 22.5128 5.99191 30.5362 5.99191C38.5719 5.99191 39.5232 6.02665 42.6836 6.16516C45.6205 6.29239 47.2064 6.77741 48.2637 7.18166C49.5675 7.65495 50.7542 8.40571 51.7174 9.38747C52.7159 10.3462 53.4795 11.5012 53.9614 12.7835C54.3726 13.823 54.8659 15.3935 54.9953 18.2698C55.1362 21.3883 55.1715 22.3236 55.1715 30.2125C55.1715 38.1013 55.1362 39.0253 54.9953 42.1439Z" fill="white"/>
<path d="M30.5119 15.002C21.9833 15.002 15.0636 21.8048 15.0636 30.1904C15.0636 38.576 21.9833 45.3789 30.5119 45.3789C39.0409 45.3789 45.9602 38.576 45.9602 30.1904C45.9602 21.8048 39.0409 15.002 30.5119 15.002ZM30.5119 40.0428C24.979 40.0428 20.491 35.6307 20.491 30.1904C20.491 24.7501 24.979 20.338 30.5119 20.338C36.0453 20.338 40.5328 24.7501 40.5328 30.1904C40.5328 35.6307 36.0453 40.0428 30.5119 40.0428Z" fill="white"/>
<path d="M50.1783 14.4033C50.1783 16.362 48.5634 17.9502 46.5713 17.9502C44.5797 17.9502 42.9648 16.362 42.9648 14.4033C42.9648 12.4442 44.5797 10.8564 46.5713 10.8564C48.5634 10.8564 50.1783 12.4442 50.1783 14.4033Z" fill="white"/>
</svg>
