<svg width="139" height="159" viewBox="0 0 139 159" fill="none" xmlns="http://www.w3.org/2000/svg">
<circle cx="70.5" cy="20" r="16" stroke="#0175BD" stroke-width="8"/>
<path fill-rule="evenodd" clip-rule="evenodd" d="M11.1761 50.6478H127.824C129.302 50.6478 130.5 51.8459 130.5 53.3239C130.5 54.8019 129.302 56 127.824 56H82.5V64H127.824C133.72 64 138.5 59.2201 138.5 53.3239C138.5 47.4276 133.72 42.6478 127.824 42.6478H11.1761C5.27986 42.6478 0.5 47.4276 0.5 53.3239C0.5 59.2201 5.27986 64 11.1761 64H59.5V56H11.1761C9.69814 56 8.5 54.8019 8.5 53.3239C8.5 51.8459 9.69814 50.6478 11.1761 50.6478Z" fill="#0175BD"/>
<rect x="51.5" y="57" width="8" height="91" rx="4" fill="#0175BD"/>
<rect x="82.5" y="58" width="8" height="31.7162" rx="4" fill="#0175BD"/>
<rect x="82.0719" y="87.2238" width="8" height="30.4367" rx="4" transform="rotate(-53.4503 82.0719 87.2238)" fill="#0175BD"/>
<rect x="91.2487" y="133.079" width="8" height="28.3078" rx="4" transform="rotate(-135 91.2487 133.079)" fill="#0175BD"/>
<rect x="95.5878" y="104.484" width="8" height="28.9688" rx="4" transform="rotate(120 95.5878 104.484)" fill="#0175BD"/>
<rect x="89.5981" y="101" width="8" height="24.1803" rx="4" transform="rotate(45 89.5981 101)" fill="#0175BD"/>
<rect x="67.5" y="92" width="8" height="55" rx="4" fill="#0175BD"/>
<path fill-rule="evenodd" clip-rule="evenodd" d="M51.5 135V147C51.5 153.627 56.8726 159 63.5 159C70.1274 159 75.5 153.627 75.5 147V135H67.5V147C67.5 149.209 65.7091 151 63.5 151C61.2909 151 59.5 149.209 59.5 147V135H51.5Z" fill="#0175BD"/>
<path fill-rule="evenodd" clip-rule="evenodd" d="M83.4706 107L74.9853 115.485C70.299 120.172 70.299 127.77 74.9853 132.456C79.6716 137.142 87.2696 137.142 91.9559 132.456L100.441 123.971L94.7843 118.314L86.299 126.799C84.7369 128.361 82.2043 128.361 80.6422 126.799C79.0801 125.237 79.0801 122.704 80.6422 121.142L89.1274 112.657L83.4706 107Z" fill="#0175BD"/>
<path fill-rule="evenodd" clip-rule="evenodd" d="M102.405 102.269C103.717 103.17 104.577 104.681 104.577 106.393C104.577 107.944 103.872 109.329 102.764 110.247L108.43 115.913C110.981 113.539 112.577 110.153 112.577 106.393C112.577 102.474 110.842 98.9589 108.099 96.5754L102.405 102.269Z" fill="#0175BD"/>
</svg>
