<svg width="171" height="170" viewBox="0 0 171 170" fill="none" xmlns="http://www.w3.org/2000/svg">
<path d="M166.472 134.643C166.472 151.38 152.548 165.11 135.169 165.11C117.79 165.11 103.866 151.38 103.866 134.643C103.866 117.907 117.79 104.177 135.169 104.177C152.548 104.177 166.472 117.907 166.472 134.643Z" fill="#0175BD" stroke="#0175BD" stroke-width="8"/>
<rect x="109.313" y="79.9167" width="51.7125" height="37.2781" rx="10" stroke="#0175BD" stroke-width="12"/>
<path d="M123.972 64.4883C131.732 64.1459 138.277 70.2063 138.532 77.9692C138.776 85.4309 133.104 91.7629 125.66 92.3369L54.9729 97.7877C46.4694 98.4434 39.1073 91.9388 38.7103 83.4193C38.321 75.0651 44.7891 67.9823 53.1443 67.6136L123.972 64.4883Z" fill="white" stroke="#0175BD" stroke-width="8"/>
<path d="M70.2553 73.8915C73.335 82.7539 68.5286 92.4721 59.5091 95.7193C51.5129 98.5982 42.6228 95.4577 38.3987 88.2124C27.6396 69.758 20.8518 55.7564 13.6148 35.7788C10.5289 27.2601 14.6493 17.7591 23.0449 13.8776C31.287 10.0671 40.9986 12.8953 45.5398 20.5062C56.1595 38.3041 63.1691 53.5 70.2553 73.8915Z" fill="white" stroke="#0175BD" stroke-width="8"/>
</svg>
