<svg width="161" height="161" viewBox="0 0 161 161" fill="none" xmlns="http://www.w3.org/2000/svg">
<path d="M75.8854 39.9334H84.0649V118.661H75.8854V39.9334Z" fill="#0175BD"/>
<path d="M92.6947 41.9783L96.2171 49.3605L81.4527 56.4052L77.9303 49.023L92.6947 41.9783Z" fill="#0175BD"/>
<path d="M92.6947 115.706L96.2171 108.324L81.4527 101.279L77.9303 108.662L92.6947 115.706Z" fill="#0175BD"/>
<path d="M78.3806 56.4052L81.903 49.023L67.1386 41.9782L63.6162 49.3604L78.3806 56.4052Z" fill="#0175BD"/>
<path d="M78.3806 101.279L81.903 108.662L67.1386 115.706L63.6162 108.324L78.3806 101.279Z" fill="#0175BD"/>
<path d="M111.991 56.1243L116.081 63.2079L47.9008 102.572L43.8111 95.488L111.991 56.1243Z" fill="#0175BD"/>
<path d="M118.625 71.704L113.993 78.4455L100.51 69.1816L105.142 62.44L118.625 71.704Z" fill="#0175BD"/>
<path d="M54.7743 108.568L62.9287 107.927L61.6474 91.6187L53.4931 92.2593L54.7743 108.568Z" fill="#0175BD"/>
<path d="M98.9736 66.5211L107.128 65.8805L105.847 49.5718L97.6924 50.2124L98.9736 66.5211Z" fill="#0175BD"/>
<path d="M60.1114 88.9582L55.4794 95.6998L41.9963 86.4358L46.6283 79.6943L60.1114 88.9582Z" fill="#0175BD"/>
<path d="M116.401 95.0347L112.311 102.118L44.1315 62.7546L48.2212 55.671L116.401 95.0347Z" fill="#0175BD"/>
<path d="M106.226 108.57L98.0713 107.929L99.3525 91.6202L107.507 92.2608L106.226 108.57Z" fill="#0175BD"/>
<path d="M42.3752 71.7055L47.0072 78.447L60.4903 69.1831L55.8583 62.4415L42.3752 71.7055Z" fill="#0175BD"/>
<path d="M100.889 88.9597L105.521 95.7013L119.004 86.4373L114.372 79.6958L100.889 88.9597Z" fill="#0175BD"/>
<path d="M62.0263 66.5226L53.872 65.882L55.1532 49.5733L63.3076 50.2139L62.0263 66.5226Z" fill="#0175BD"/>
<path d="M44.0977 40.7971L16.5 40.7971C7.66344 40.7971 0.5 47.9606 0.5 56.7971L0.500003 104.797C0.500003 113.634 7.66345 120.797 16.5 120.797H44.0977V112.797H16.5C12.0817 112.797 8.5 109.215 8.5 104.797L8.5 56.7971C8.5 52.3788 12.0817 48.7971 16.5 48.7971L44.0977 48.7971V40.7971Z" fill="#0175BD"/>
<path d="M117.518 112.797H144.5C148.918 112.797 152.5 109.215 152.5 104.797V56.7971C152.5 52.3788 148.918 48.7971 144.5 48.7971L117.518 48.7971V40.7971H144.5C153.337 40.7971 160.5 47.9606 160.5 56.7971V104.797C160.5 113.634 153.337 120.797 144.5 120.797H117.518V112.797Z" fill="#0175BD"/>
<path d="M56.5 8.79712H104.5C108.918 8.79712 112.5 12.3788 112.5 16.7971V48.8708H120.5V16.7971C120.5 7.96056 113.337 0.797119 104.5 0.797119H56.5C47.6634 0.797119 40.5 7.96057 40.5 16.7971V48.8708H48.5V16.7971C48.5 12.3788 52.0817 8.79712 56.5 8.79712Z" fill="#0175BD"/>
<path d="M48.5 112.717H40.5V144.797C40.5 153.634 47.6634 160.797 56.5 160.797H104.5C113.337 160.797 120.5 153.634 120.5 144.797V112.717H112.5V144.797C112.5 149.215 108.918 152.797 104.5 152.797H56.5C52.0817 152.797 48.5 149.215 48.5 144.797V112.717Z" fill="#0175BD"/>
</svg>
