<svg width="76" height="180" viewBox="0 0 76 180" fill="none" xmlns="http://www.w3.org/2000/svg">
<path d="M13.9795 25.1166L17.561 9.27791C27.1139 9.22108 34.6086 9.82231 41.875 11.4504C49.1684 13.0846 56.3907 15.7891 65.3523 20.0944L61.7469 36.0385C44.4813 30.0383 32.7529 26.8177 13.9795 25.1166Z" stroke="#0175BD" stroke-width="8"/>
<circle cx="67.5255" cy="28.6194" r="5" transform="rotate(12.7418 67.5255 28.6194)" fill="#0175BD"/>
<circle cx="11.9292" cy="16.0477" r="5" transform="rotate(12.7418 11.9292 16.0477)" fill="#0175BD"/>
<path d="M10.0663 60.4327L12.1938 44.334C21.7019 43.4093 29.2202 43.327 36.6045 44.2881C44.0162 45.2528 51.4545 47.2898 60.7702 50.7629L58.6286 66.9686C40.8892 62.5622 28.9166 60.4208 10.0663 60.4327Z" stroke="#0175BD" stroke-width="8"/>
<circle cx="63.7092" cy="59.0552" r="5" transform="rotate(7.52804 63.7092 59.0552)" fill="#0175BD"/>
<circle cx="7.20041" cy="51.5875" r="5" transform="rotate(7.52804 7.20041 51.5875)" fill="#0175BD"/>
<path d="M13.2301 99.8448L12.5019 83.6225C21.7007 81.0451 29.0881 79.6458 36.5265 79.2974C43.9926 78.9476 51.6727 79.6488 61.4531 81.4348L62.186 97.765C43.9489 96.5372 31.7862 96.528 13.2301 99.8448Z" stroke="#0175BD" stroke-width="8"/>
<circle cx="65.8003" cy="89.0834" r="5" transform="rotate(-2.56995 65.8003 89.0834)" fill="#0175BD"/>
<circle cx="8.85772" cy="91.6392" r="5" transform="rotate(-2.56995 8.85772 91.6392)" fill="#0175BD"/>
<path d="M17.3457 133.825L17.4063 117.587C26.7194 115.459 34.166 114.42 41.6126 114.434C49.0868 114.447 56.7239 115.52 66.4059 117.779L66.345 134.126C48.1889 132.013 36.0411 131.414 17.3457 133.825Z" stroke="#0175BD" stroke-width="8"/>
<circle cx="70.3767" cy="125.63" r="5" transform="rotate(0.213704 70.3767 125.63)" fill="#0175BD"/>
<circle cx="13.3771" cy="125.417" r="5" transform="rotate(0.213704 13.3771 125.417)" fill="#0175BD"/>
<path d="M12.9799 165.006L15.6719 148.992C25.2067 148.402 32.7233 148.584 40.0692 149.804C47.4424 151.028 54.8045 153.326 63.9923 157.124L61.2824 173.244C43.7089 168.217 31.819 165.656 12.9799 165.006Z" stroke="#0175BD" stroke-width="8"/>
<circle cx="66.6381" cy="165.514" r="5" transform="rotate(9.54238 66.6381 165.514)" fill="#0175BD"/>
<circle cx="10.4268" cy="156.065" r="5" transform="rotate(9.54238 10.4268 156.065)" fill="#0175BD"/>
</svg>
