<svg width="125" height="179" viewBox="0 0 125 179" fill="none" xmlns="http://www.w3.org/2000/svg">
<ellipse cx="62.5001" cy="167.786" rx="47.2381" ry="11.0714" fill="#0175BD"/>
<path fill-rule="evenodd" clip-rule="evenodd" d="M106.495 51.4287C106.227 27.6347 86.8551 8.42871 62.9976 8.42871C39.1401 8.42871 19.7684 27.6347 19.5004 51.4287H19.5703C19.9603 64.0196 21.9993 73.1559 27.5926 82.6485C33.6313 92.8971 44.1017 104.063 62.5855 119.918C81.1617 104.505 91.8205 93.4447 98.0311 83.1036C103.747 73.5858 105.955 64.2306 106.407 51.4287H106.495ZM11.5 51.4287H11.5667C12.4072 80.1419 21.3627 95.8273 62.4988 130.333C103.709 96.9357 113.434 80.8197 114.411 51.4287H114.495C114.227 23.2163 91.2734 0.428711 62.9976 0.428711C34.7218 0.428711 11.7683 23.2163 11.5 51.4287ZM82.4976 51.9287C82.4976 62.6983 73.7671 71.4287 62.9976 71.4287C52.228 71.4287 43.4976 62.6983 43.4976 51.9287C43.4976 41.1592 52.228 32.4287 62.9976 32.4287C73.7671 32.4287 82.4976 41.1592 82.4976 51.9287ZM90.4976 51.9287C90.4976 67.1165 78.1854 79.4287 62.9976 79.4287C47.8097 79.4287 35.4976 67.1165 35.4976 51.9287C35.4976 36.7409 47.8097 24.4287 62.9976 24.4287C78.1854 24.4287 90.4976 36.7409 90.4976 51.9287Z" fill="#0175BD"/>
</svg>
