<svg width="141" height="159" viewBox="0 0 141 159" fill="none" xmlns="http://www.w3.org/2000/svg">
<path d="M29.9999 38.9976C16.5933 55.3626 15.2824 70.8212 18.4242 103H50.4518C48.0172 100.703 45.891 98.0068 44.1531 95H25.7387C24.7313 82.4729 24.6957 73.3529 25.9912 65.8227C27.2672 58.406 29.8757 52.3278 34.6647 46H52.5296C52.7112 45.8553 52.8942 45.7127 53.0786 45.5723C53.0734 45.5174 53.0685 45.4626 53.0638 45.4076L53.0598 45.4009H53.0632L48.5714 38H48.5686L53.0598 45.4009H29.9999V38.9976Z" fill="#0175BD"/>
<path d="M111.079 38.9976C124.485 55.3626 125.796 70.8212 122.654 103H90.6267C93.0612 100.703 95.1875 98.0068 96.9254 95H115.34C116.347 82.4729 116.383 73.3529 115.087 65.8227C113.811 58.406 111.203 52.3278 106.414 46H88.5489C88.3673 45.8553 88.1843 45.7127 87.9999 45.5723C88.0051 45.5174 88.01 45.4626 88.0147 45.4076L88.0187 45.4009H88.0153L92.5071 38H92.5099L88.0187 45.4009H111.079V38.9976Z" fill="#0175BD"/>
<path fill-rule="evenodd" clip-rule="evenodd" d="M90.8545 104.235C88.7103 106.146 86.3433 107.754 83.8045 109.002C83.9328 109.809 84 110.643 84 111.5C84 119.855 77.617 126 70.5 126C63.383 126 57 119.855 57 111.5C57 110.475 57.0961 109.483 57.2779 108.531C54.7863 107.199 52.472 105.515 50.3857 103.536C49.4901 106.012 49 108.696 49 111.5C49 123.926 58.6259 134 70.5 134C82.3741 134 92 123.926 92 111.5C92 108.958 91.5971 106.514 90.8545 104.235Z" fill="#0175BD"/>
<path fill-rule="evenodd" clip-rule="evenodd" d="M87.9733 45.4756C87.809 48.4643 86.8948 51.2532 85.4157 53.6572C91.104 58.6183 95 66.5115 95 75.9998C95 92.3756 83.395 104 71 104C58.605 104 47 92.3756 47 75.9998C47 66.8678 50.6089 59.2134 55.9512 54.2285C54.379 51.8819 53.3594 49.1339 53.0787 46.1707C44.5834 52.6431 39 63.5879 39 75.9998C39 95.8821 53.3269 112 71 112C88.6731 112 103 95.8821 103 75.9998C103 63.1319 96.9988 51.8408 87.9733 45.4756Z" fill="#0175BD"/>
<circle cx="70.5" cy="44.5" r="13.5" stroke="#0175BD" stroke-width="8"/>
<path fill-rule="evenodd" clip-rule="evenodd" d="M38 37.9996V14.0077C51.1384 10.3447 61.3834 8.61246 71.2388 8.59871C81.0033 8.58509 90.7832 10.2586 103 13.888V37.9996H86.7529C87.5574 40.0093 88 42.203 88 44.5C88 45.0051 87.9786 45.5053 87.9366 45.9996H103H111V37.9996V7.99958C80.345 -1.9371 62.5955 -1.79935 30 7.99958V37.9996V45.9996H38H53.0634C53.0214 45.5053 53 45.0051 53 44.5C53 42.203 53.4426 40.0093 54.2471 37.9996H38Z" fill="#0175BD"/>
<path fill-rule="evenodd" clip-rule="evenodd" d="M70.9999 111.983V112C70.8329 112 70.6663 111.999 70.4999 111.996C70.3335 111.999 70.1669 112 69.9999 112V111.983C66.0605 111.847 62.3004 110.91 58.8438 109.312L62.9999 109.205L69.9999 109.026V109L70.4999 109.013L70.9999 109V109.026L77.9999 109.205L82.156 109.312C78.6995 110.91 74.9393 111.847 70.9999 111.983ZM43.8957 112.629C45.5759 111.942 47.2851 111.242 49.0197 110.527C49.0066 110.85 48.9999 111.174 48.9999 111.5C48.9999 114.026 49.3975 116.454 50.1308 118.72C48.9941 119.187 47.8759 119.645 46.7758 120.095L46.7752 120.096C41.2712 122.348 36.2187 124.416 31.5465 126.515C24.7708 129.558 19.47 132.378 15.5943 135.343C11.7838 138.259 9.81461 140.962 8.96009 143.673C8.4121 145.411 8.17882 147.609 8.63601 150.5H62.9999V132.593C65.1871 133.445 67.5426 133.936 69.9999 133.994C70.0022 133.994 70.0044 133.994 70.0066 133.994C70.1706 133.998 70.3351 134 70.4999 134C70.667 134 70.8337 133.998 70.9999 133.994C73.4572 133.936 75.8127 133.445 77.9999 132.593V150.5H132.364C132.821 147.609 132.588 145.411 132.04 143.673C131.185 140.962 129.216 138.259 125.406 135.343C121.53 132.378 116.229 129.558 109.453 126.515C104.781 124.416 99.7287 122.348 94.2246 120.096C93.1243 119.645 92.006 119.187 90.869 118.72C91.6023 116.454 91.9999 114.026 91.9999 111.5C91.9999 111.174 91.9933 110.85 91.9801 110.527C93.7153 111.242 95.425 111.942 97.1056 112.63L97.1058 112.63L97.1059 112.63C126.828 124.797 147.446 133.237 138.5 158.5H77.9999H70.9999H69.9999H62.9999H2.49993C-6.44642 133.237 14.1722 124.797 43.8939 112.63L43.894 112.63L43.8957 112.629Z" fill="#0175BD"/>
</svg>
