<svg width="93" height="144" viewBox="0 0 93 144" fill="none" xmlns="http://www.w3.org/2000/svg">
<path fill-rule="evenodd" clip-rule="evenodd" d="M27.507 0.00580277V0.000285872H14.4085V71.3951H0V83.4959H14.4085V96.8068H0V108.908H14.4085V144H27.507V108.908H77.2817V96.8068H27.507V83.4901C36.142 83.4617 44.117 83.3116 51.2206 82.6778C59.3651 81.9512 66.8681 80.5533 73.2199 77.6708C79.7594 74.7031 84.9171 70.2313 88.3072 63.7725C91.6102 57.4799 93.0402 49.6764 92.9991 40.241C92.9586 30.9094 91.6526 23.2779 88.4995 17.2353C85.2164 10.9439 80.1501 6.79365 73.6399 4.2163C67.4063 1.74839 59.9818 0.773992 51.8722 0.344352C45.0074 -0.0193388 37.1314 -0.00801527 28.474 0.00443168C28.1528 0.00489352 27.8304 0.00535694 27.507 0.00580277ZM79.9007 40.2896C79.9372 48.7006 78.6338 54.468 76.5212 58.4928C74.4958 62.3515 71.5558 64.944 67.4446 66.8097C63.1457 68.7606 57.4449 69.9654 49.9615 70.633C43.4793 71.2113 36.0366 71.36 27.507 71.3891V12.1069C27.8701 12.1064 28.2311 12.106 28.5898 12.1055C37.2652 12.0938 44.6776 12.0839 51.1223 12.4253C58.8032 12.8322 64.3836 13.7169 68.4804 15.3388C72.3008 16.8513 74.8905 19.0217 76.7003 22.4901C78.64 26.2072 79.8636 31.7747 79.9007 40.2896Z" fill="#0175BD"/>
</svg>
